<svg xmlns="http://www.w3.org/2000/svg" viewBox="0 48 200 200" role="img" aria-labelledby="title desc">
  <title id="title">PyOps logo</title>
  <desc id="desc">Isometric PyOps cube mark with a checklist panel.</desc>
  <path fill="#e0e0e0" d="m 17.120438,210.56298 -0.03682,-106.62535 78.054472,32.58406 -0.147273,61.50472 -11.303172,5.06249 -40.352688,-17.12044 -10e-7,-23.37953 29.969974,12.95999 -0.03682,-24.9627 -36.265875,-15.0218 0.18409,83.94537 z"/>
  <path fill="#d2842d" fill-rule="evenodd" d="M 100.5,61.0 16.5,93.7 100.5,128.3 184.5,93.7 Z M 100.5,69.1 36.7,94.0 100.5,120.2 164.3,94.0 Z"/>
  <path fill="#6b6b6b" fill-rule="evenodd" d="M 183.59448 102.15862 L 104.65821 135.48269 L 104.44996 243.89002 L 183.80273 207.75424 L 183.59448 102.15862 z M 176.20061 114.13464 L 176.82538 201.92256 L 112.3642 231.18537 L 112.05208 141.73088 L 176.20061 114.13464 z"/>
  <path fill="#6b6b6b" d="m 118.20,155.21 37.85,-16.28 0.02,7.15 -37.85,16.29 z"/>
  <path fill="#6b6b6b" d="m 118.27,176.68 37.85,-16.28 0.03,7.15 -37.85,16.29 z"/>
  <path fill="#6b6b6b" d="m 118.35,198.15 37.85,-16.28 0.02,7.15 -37.85,16.29 z"/>
  <path fill="#d2842d" d="m 163.55,135.70 6.61,-2.85 0.03,7.16 -6.61,2.84 z"/>
  <path fill="#d2842d" d="m 163.63,157.17 6.61,-2.84 0.02,7.15 -6.61,2.84 z"/>
  <path fill="#d2842d" d="m 163.70,178.64 6.61,-2.84 0.03,7.15 -6.61,2.85 z"/>
</svg>
